<?xml version="1.0" standalone="no"?>
<!DOCTYPE svg PUBLIC "-//W3C//DTD SVG 20010904//EN"
 "http://www.w3.org/TR/2001/REC-SVG-20010904/DTD/svg10.dtd">
<svg version="1.0" xmlns="http://www.w3.org/2000/svg"
 width="2000.000000pt" height="480.000000pt" viewBox="0 0 2000.000000 480.000000"
 preserveAspectRatio="xMidYMid meet">

<g transform="translate(0.000000,480.000000) scale(0.100000,-0.100000)"
fill="#000000" stroke="none">
<path d="M15337 4046 c-170 -49 -258 -255 -182 -424 15 -33 41 -74 58 -90 99
-96 315 -108 425 -24 55 42 65 53 92 109 42 84 42 211 1 291 -27 51 -77 97
-135 123 -62 27 -190 35 -259 15z"/>
<path d="M17540 2485 l0 -1465 255 0 255 0 0 343 0 343 73 72 c40 39 75 72 79
72 3 0 164 -185 358 -411 193 -225 357 -412 363 -415 7 -2 155 -3 329 -2 l317
3 -499 580 c-275 319 -500 583 -500 586 0 4 222 215 494 470 l494 464 -345 3
-344 2 -407 -400 -407 -400 -3 810 -2 810 -255 0 -255 0 0 -1465z"/>
<path d="M11685 3830 c-309 -25 -584 -147 -806 -358 -310 -294 -466 -728 -428
-1189 17 -218 62 -382 155 -568 148 -296 410 -533 712 -644 181 -67 394 -95
597 -80 106 8 261 36 321 60 35 13 24 25 247 -267 l153 -202 211 151 211 152
-111 145 c-61 80 -138 180 -171 223 l-60 78 45 47 c106 110 180 215 248 350
l41 82 0 601 0 602 -45 88 c-152 303 -408 533 -725 652 -170 64 -392 92 -595
77z m345 -540 c268 -76 482 -301 563 -590 45 -159 48 -385 7 -550 -24 -101
-114 -287 -168 -349 l-38 -44 -193 254 c-107 140 -197 258 -202 263 -12 13
-395 -243 -408 -272 -15 -32 -8 -44 177 -282 126 -162 156 -206 143 -212 -25
-10 -169 -9 -241 2 -261 42 -467 197 -589 445 -77 156 -96 244 -96 455 0 211
19 299 96 455 119 242 308 390 564 441 99 19 288 12 385 -16z"/>
<path d="M1635 3806 c-388 -58 -730 -260 -955 -566 -76 -104 -171 -295 -205
-415 -116 -407 -53 -862 167 -1195 229 -347 576 -565 1003 -631 102 -15 325
-13 436 5 254 41 496 162 665 333 83 84 174 201 174 224 0 8 -11 49 -25 89
-47 137 -59 229 -59 435 0 155 4 207 21 285 12 52 24 103 28 113 7 16 -23 17
-549 17 l-556 0 0 -260 0 -260 376 0 377 0 -6 -50 c-20 -165 -216 -339 -458
-406 -96 -27 -326 -25 -434 5 -280 75 -524 291 -624 551 -85 220 -78 511 18
717 98 209 287 381 501 455 128 44 334 64 455 43 161 -28 378 -142 520 -274
82 -76 58 -87 245 109 l168 175 -21 30 c-34 49 -148 164 -207 210 -135 104
-339 197 -527 241 -134 31 -387 41 -528 20z"/>
<path d="M3782 3159 c-215 -36 -444 -167 -582 -334 -160 -193 -237 -406 -247
-682 -14 -363 82 -640 298 -867 182 -192 399 -287 654 -287 221 -1 402 61 564
192 33 27 63 49 66 49 3 0 5 -47 5 -105 l0 -105 255 0 255 0 0 66 c0 65 0 65
-58 132 -61 71 -152 188 -152 195 0 2 47 44 105 93 l105 89 0 278 0 279 -30
63 c-46 96 -63 184 -64 320 0 136 16 214 64 309 28 55 30 66 30 172 l0 114
-255 0 -255 0 0 -85 0 -85 -62 46 c-90 66 -205 121 -301 144 -89 22 -292 26
-395 9z m328 -473 c192 -34 343 -174 412 -381 20 -61 23 -90 23 -220 0 -167
-8 -208 -64 -325 -44 -92 -148 -201 -233 -243 -146 -72 -322 -74 -468 -5 -81
39 -195 150 -235 228 -91 180 -106 393 -42 589 47 144 173 282 302 330 107 40
191 47 305 27z"/>
<path d="M5651 3155 c-176 -39 -302 -104 -412 -214 -116 -116 -168 -242 -168
-406 -1 -168 52 -302 163 -410 110 -109 258 -183 520 -261 239 -71 282 -86
330 -117 72 -46 95 -121 62 -202 -17 -40 -83 -90 -140 -107 -53 -15 -194 -14
-271 2 -117 23 -256 109 -343 210 -20 24 -40 39 -48 36 -8 -3 -88 -69 -179
-147 -145 -124 -163 -144 -154 -161 26 -49 199 -205 273 -247 160 -91 364
-142 571 -142 240 -1 438 69 598 210 l47 43 0 403 0 403 -52 47 c-97 84 -191
123 -636 263 -109 34 -180 70 -206 105 -14 19 -21 47 -24 92 -4 64 -4 65 35
104 50 50 123 72 235 72 149 0 278 -62 459 -220 l46 -41 72 79 71 79 0 162 0
161 -27 24 c-74 66 -312 160 -466 185 -87 14 -280 11 -356 -5z"/>
<path d="M7530 3155 c-118 -29 -248 -106 -343 -202 l-57 -58 0 118 0 117 -255
0 -255 0 0 -1055 0 -1055 254 0 255 0 4 628 c4 694 1 668 70 774 94 145 264
230 430 215 l62 -5 44 78 c24 44 69 109 100 146 90 107 92 111 111 185 l18 69
-28 15 c-86 44 -291 59 -410 30z"/>
<path d="M8550 3154 c-328 -71 -599 -275 -742 -559 -68 -133 -118 -353 -118
-515 0 -162 50 -382 118 -515 103 -205 292 -387 496 -480 155 -70 277 -96 461
-96 282 0 503 79 710 255 410 349 487 1016 172 1481 -57 83 -178 203 -267 262
-137 92 -229 130 -389 164 -113 23 -340 25 -441 3z m353 -470 c129 -33 243
-114 316 -223 75 -114 104 -218 104 -376 -1 -142 -15 -210 -66 -315 -95 -194
-278 -310 -488 -310 -174 0 -299 59 -418 194 -97 112 -141 246 -141 429 0 173
38 295 127 412 124 162 363 242 566 189z"/>
<path d="M16525 3150 c-404 -92 -706 -420 -786 -855 -17 -90 -17 -329 -1 -425
48 -275 201 -533 407 -685 175 -130 375 -196 594 -197 232 0 427 57 619 181
l62 41 0 246 0 246 -36 43 -35 44 -56 -62 c-154 -169 -281 -247 -435 -267
-292 -36 -562 164 -633 470 -17 77 -19 202 -4 286 71 388 465 597 804 426 117
-58 224 -151 289 -249 l28 -42 39 47 39 47 0 258 0 257 -68 45 c-119 76 -240
124 -387 150 -113 21 -338 18 -440 -5z"/>
<path d="M13173 2383 c3 -740 3 -749 26 -828 83 -297 290 -502 560 -554 88
-17 260 -15 348 3 136 29 268 96 373 188 l45 40 3 -106 3 -106 249 0 250 0 0
1055 0 1055 -250 0 -250 0 0 -622 c-1 -343 -5 -655 -9 -695 -16 -140 -100
-262 -218 -318 -179 -84 -375 -64 -489 50 -61 60 -95 123 -119 220 -16 63 -19
136 -22 718 l-4 647 -250 0 -250 0 4 -747z"/>
<path d="M15200 2075 l0 -1055 250 0 250 0 0 279 c0 227 -3 285 -15 315 -32
76 -65 223 -76 343 -19 189 4 380 66 562 24 72 25 82 25 343 l0 268 -250 0
-250 0 0 -1055z"/>
</g>
</svg>
